<svg xmlns="http://www.w3.org/2000/svg" width="320" height="200" viewBox="0 0 320 200"><title>Hypsilophodon — stylized species illustration</title><rect width="320" height="200" rx="16" fill="#15281e"/><circle cx="236" cy="62" r="45" fill="#263d2a"/><path d="M16 188H304" stroke="#53674c" stroke-width="2"/><path d="M35 104 Q85 107 122 105 Q155 85 190 101 L214 90 L241 66 L266 69 L278 84 L262 105 L233 108 L215 136 L200 145 L196 180 L179 180 L176 145 L144 147 L129 180 L105 181 L119 163 L121 140 Q55 140 13 117Z M224 112 L239 146 L231 175 L218 175 L221 146 L210 129Z M232 80 L219 55 L239 67 L243 50 L251 72Z" fill="#a9bd85" stroke="#d1ddb0" stroke-width="2" stroke-linejoin="round"/></svg>
